<svg height="512pt" viewBox="-27 0 512 512" width="512pt" xmlns="http://www.w3.org/2000/svg"><path d="m183.820312 325.5625c-14.214843 13.328125-12.800781 43.785156 3.53125 74.152344 9.53125 18.976562 33.808594 42.195312 66.207032 63.558594-14.625 5.019531-29.660156 8.742187-44.933594 11.121093-.089844-.089843-.265625-.175781-.355469-.351562-21.304687-15.476563-39.113281-35.269531-52.257812-58.085938-24.363281-45.464843-23.039063-91.191406 3.707031-116.082031 26.726562-22.664062 65.484375-24.125 93.839844-3.53125v41.929688c-5.503906.117187-10.742188-2.367188-14.125-6.710938-6.589844-8.367188-16.390625-13.589844-27.011719-14.386719-1.324219-.089843-2.648437-.175781-3.886719-.175781-9-.226562-17.78125 2.816406-24.714844 8.5625zm0 0" fill="#67b9cc"/><path d="m350.925781 416.398438c-13.234375 22.78125-31.097656 42.539062-52.4375 57.996093l-41.753906 25.863281c-1.058594.441407-2.117187.707032-3.175781 1.0625-7.753906 2.3125-15.660156 4.082032-23.660156 5.292969-18.386719 3.339844-37.015626 5.140625-55.703126 5.386719-48.285156 0-83.15625-13.859375-104.164062-41.3125-43.433594-56.9375-11.386719-155.542969 10.769531-207.359375 4.449219.886719 8.972657 1.328125 13.507813 1.324219h24.363281c-22.511719 49.167968-53.847656 141.238281-20.570313 184.671875 20.394532 26.660156 62.765626 30.367187 104.960938 25.6875h.175781c1.765625-.175781 3.621094-.351563 5.386719-.617188 15.273438-2.378906 30.308594-6.101562 44.933594-11.121093 32.394531-21.363282 56.671875-44.492188 65.941406-63.117188 16.59375-30.808594 18.007812-61.265625 3.792969-74.59375-8.015625-6.527344-18.324219-9.550781-28.601563-8.386719-10.621094.796875-20.421875 6.019531-27.011718 14.386719-3.382813 4.34375-8.621094 6.828125-14.121094 6.710938v-41.929688c28.351562-20.59375 67.109375-19.132812 93.835937 3.53125 26.746094 24.890625 28.070313 70.617188 3.53125 116.523438zm0 0" fill="#2fa8cc"/><path d="m220.363281 40.519531-24.980469 164.28125c-4.839843 34.351563-34.25 59.886719-68.945312 59.851563h-32.128906c-4.535156.003906-9.058594-.4375-13.507813-1.324219-29.050781-5.726563-51.296875-29.210937-55.4375-58.527344l-24.980469-164.195312c-1.5-10.171875 1.460938-20.5 8.121094-28.335938 6.574219-7.761719 16.222656-12.2460935 26.394532-12.269531h34.957031v35.308594h-34.957031l24.980468 164.195312c2.417969 17.15625 17.101563 29.917969 34.429688 29.925782h32.128906c17.332031-.007813 32.011719-12.769532 34.429688-29.925782l24.980468-164.195312h-35.75v-35.308594h35.75c10.171875.0234375 19.820313 4.507812 26.394532 12.269531 6.648437 7.808594 9.609374 18.101563 8.121093 28.25zm0 0" fill="#9fc9d3"/><path d="m437.082031 470.6875c-21.007812 27.453125-55.878906 41.3125-104.164062 41.3125-26.699219-.410156-53.277344-3.695312-79.273438-9.796875l3.089844-1.945313 41.753906-25.863281c44.050781 5.5625 89.335938 2.738281 110.523438-25.070312 33.367187-43.785157 1.941406-136.03125-20.65625-185.027344l32.75-12.976563c21.273437 46.964844 63.203125 157.574219 15.976562 219.367188zm0 0" fill="#67b9cc"/><path d="m450.234375 194.207031c0 39.003907-31.617187 70.621094-70.621094 70.621094-39 0-70.621093-31.617187-70.621093-70.621094 0-39.003906 31.621093-70.621093 70.621093-70.621093 39.003907 0 70.621094 31.617187 70.621094 70.621093zm0 0" fill="#3b97d3"/><path d="m414.925781 194.207031c0 19.5-15.808593 35.308594-35.3125 35.308594-19.5 0-35.308593-15.808594-35.308593-35.308594s15.808593-35.308593 35.308593-35.308593c19.503907 0 35.3125 15.808593 35.3125 35.308593zm0 0" fill="#9fc9d3"/><g fill="#f3d55b"><path d="m52.992188 0h17.65625c9.75 0 17.65625 7.90625 17.65625 17.65625s-7.90625 17.652344-17.65625 17.652344h-17.65625zm0 0"/><path d="m150.097656 0h17.65625v35.308594h-17.65625c-9.75 0-17.65625-7.902344-17.65625-17.652344s7.90625-17.65625 17.65625-17.65625zm0 0"/></g></svg>