<svg width="287" height="297" viewBox="0 0 287 297" fill="none" xmlns="http://www.w3.org/2000/svg">
<g id="Group">
<path id="bow" d="M41.169 61.873C44.455 64.38 49.149 63.749 51.657 60.465C73.728 31.548 107.203 14.965 143.5 14.965C179.797 14.965 213.272 31.549 235.343 60.465C236.816 62.394 239.043 63.407 241.297 63.407C242.879 63.407 244.476 62.907 245.831 61.873C249.115 59.365 249.745 54.67 247.239 51.385C222.312 18.729 184.501 0 143.5 0C102.499 0 64.688 18.729 39.762 51.385C37.255 54.67 37.885 59.365 41.169 61.873Z" fill="#7B74FF"/>
<g id="right">
<path id="Vector" d="M223.037 101.786C223.037 114.671 233.521 125.155 246.406 125.155C259.291 125.155 269.775 114.671 269.775 101.786C269.775 88.901 259.291 78.417 246.406 78.417C233.521 78.417 223.037 88.9 223.037 101.786V101.786Z" fill="#7B74FF"/>
<path id="Vector_2" d="M270.322 132.91C270.268 132.892 264.38 131.085 264.38 131.085C262.248 130.434 259.932 130.835 258.147 132.171L246.406 140.962L234.665 132.171C232.879 130.834 230.562 130.433 228.432 131.085C228.432 131.085 222.544 132.892 222.49 132.91C213.016 136.069 206.651 144.9 206.651 154.886V190.215C206.651 191.578 207.049 192.911 207.799 194.049L219.647 212.08V259.432C219.647 263.289 222.773 266.415 226.63 266.415H266.183C270.04 266.415 273.166 263.289 273.166 259.432V212.08L285.014 194.049C285.763 192.91 286.162 191.577 286.162 190.215V154.886C286.162 144.9 279.796 136.069 270.322 132.91V132.91Z" fill="#7B74FF"/>
</g>
<g id="left">
<path id="Vector_3" d="M40.594 125.155C53.479 125.155 63.963 114.671 63.963 101.786C63.963 88.901 53.479 78.417 40.594 78.417C27.709 78.417 17.224 88.9 17.224 101.786C17.224 114.672 27.708 125.155 40.594 125.155V125.155Z" fill="#7B74FF"/>
<path id="Vector_4" d="M64.51 132.91C64.456 132.892 58.568 131.085 58.568 131.085C56.435 130.434 54.121 130.835 52.335 132.171L40.594 140.962L28.853 132.171C27.068 130.834 24.75 130.433 22.62 131.085C22.62 131.085 16.732 132.892 16.678 132.91C7.204 136.069 0.839005 144.9 0.839005 154.886V190.215C0.839005 191.578 1.237 192.911 1.987 194.049L13.835 212.08V259.432C13.835 263.289 16.961 266.415 20.818 266.415H60.37C64.227 266.415 67.353 263.289 67.353 259.432V212.08L79.201 194.049C79.95 192.91 80.349 191.577 80.349 190.215V154.886C80.349 144.9 73.983 136.069 64.51 132.91Z" fill="#7B74FF"/>
</g>
<g id="center">
<path id="Vector_5" d="M173.642 68.851C173.642 52.231 160.12 38.709 143.5 38.709C126.88 38.709 113.358 52.231 113.358 68.851C113.358 85.472 126.88 98.993 143.5 98.993C160.12 98.993 173.642 85.472 173.642 68.851Z" fill="#7B74FF"/>
<path id="Vector_6" d="M176.607 113.601L176.557 113.585L167.954 110.945C166.597 110.528 165.147 111.246 164.659 112.585L146.569 162.22C145.525 165.083 141.476 165.083 140.432 162.22L122.342 112.585C121.948 111.504 120.928 110.826 119.834 110.826C119.575 110.826 110.454 113.581 110.454 113.581C99.464 117.243 92.122 127.431 92.122 138.951V191.457C92.122 191.978 92.275 192.488 92.561 192.924L111.437 221.648V294.328C111.437 295.804 112.633 297 114.109 297H172.892C174.368 297 175.564 295.804 175.564 294.328V221.648L194.44 192.924C194.726 192.488 194.879 191.978 194.879 191.457V138.813C194.878 127.343 187.507 117.172 176.607 113.601V113.601Z" fill="#7B74FF"/>
</g>
<path id="Vector_7" d="M150.568 112.556C149.821 111.742 148.728 111.332 147.622 111.332H139.377C138.272 111.332 137.179 111.742 136.431 112.556C135.274 113.817 135.106 115.638 135.927 117.061L140.334 123.705L138.271 141.11L142.334 151.918C142.73 153.005 144.267 153.005 144.664 151.918L148.727 141.11L146.664 123.705L151.071 117.061C151.893 115.638 151.725 113.817 150.568 112.556V112.556Z" fill="#7B74FF"/>
</g>
</svg>
