<svg width="484" height="429" viewBox="0 0 484 429" fill="none" xmlns="http://www.w3.org/2000/svg">
<g id="Group">
<g id="Vector" filter="url(#filter0_b)">
<path d="M292.073 73.8437C314.452 88.5999 330.144 113.57 333.001 142.555C342.128 147.04 352.258 149.619 362.997 149.619C402.204 149.619 433.981 116.2 433.981 74.9744C433.981 33.7424 402.204 0.323624 362.997 0.323624C324.165 0.336328 292.665 33.158 292.073 73.8437ZM245.57 226.69C284.777 226.69 316.554 193.265 316.554 152.039C316.554 110.813 284.771 77.3946 245.57 77.3946C206.369 77.3946 174.573 110.82 174.573 152.045C174.573 193.271 206.369 226.69 245.57 226.69ZM275.68 231.778H215.447C165.332 231.778 124.561 274.661 124.561 327.366V404.83L124.748 406.044L129.822 407.714C177.648 423.43 219.198 428.67 253.398 428.67C320.196 428.67 358.914 408.642 361.3 407.365L366.041 404.843H366.549V327.366C366.567 274.661 325.795 231.778 275.68 231.778ZM393.119 154.713H333.352C332.705 179.862 322.498 202.507 306.352 218.794C350.899 232.724 383.491 276.167 383.491 327.48V351.351C442.504 349.077 476.51 331.488 478.751 330.307L483.493 327.778H484V250.288C484 197.591 443.229 154.713 393.119 154.713ZM121.015 149.632C134.901 149.632 147.821 145.369 158.766 138.109C162.245 114.244 174.41 93.3894 191.788 79.1859C191.86 77.7884 191.987 76.4037 191.987 74.9935C191.987 33.7615 160.204 0.342679 121.015 0.342679C81.8022 0.342679 50.0309 33.7615 50.0309 74.9935C50.0309 116.206 81.8022 149.632 121.015 149.632ZM184.763 218.794C168.696 202.59 158.525 180.065 157.782 155.069C155.565 154.898 153.372 154.713 151.113 154.713H90.8867C40.7712 154.713 0 197.591 0 250.288V327.766L0.187246 328.96L5.261 330.643C43.6283 343.24 77.8701 349.046 107.612 350.875V327.48C107.624 276.167 140.205 232.737 184.763 218.794Z" fill="#80E9FF"/>
</g>
</g>
<defs>
<filter id="filter0_b" x="-4" y="-3.67638" width="492" height="436.346" filterUnits="userSpaceOnUse" color-interpolation-filters="sRGB">
<feFlood flood-opacity="0" result="BackgroundImageFix"/>
<feGaussianBlur in="BackgroundImage" stdDeviation="2"/>
<feComposite in2="SourceAlpha" operator="in" result="effect1_backgroundBlur"/>
<feBlend mode="normal" in="SourceGraphic" in2="effect1_backgroundBlur" result="shape"/>
</filter>
</defs>
</svg>
