<svg width="296" height="266" viewBox="0 0 296 266" fill="none" xmlns="http://www.w3.org/2000/svg">
<g id="Group">
<path id="wheel-backward" d="M131.827 265.261C146.849 265.261 159.026 253.084 159.026 238.062C159.026 223.04 146.849 210.863 131.827 210.863C116.805 210.863 104.628 223.04 104.628 238.062C104.628 253.084 116.805 265.261 131.827 265.261Z" fill="#FFD848"/>
<path id="wheel-forward" d="M214.452 265.261C229.474 265.261 241.651 253.084 241.651 238.062C241.651 223.04 229.474 210.863 214.452 210.863C199.43 210.863 187.253 223.04 187.253 238.062C187.253 253.084 199.43 265.261 214.452 265.261Z" fill="#FFD848"/>
<path id="Vector" d="M138.493 78.448C131.929 78.448 126.588 83.789 126.588 90.353C126.588 96.918 131.929 102.259 138.493 102.259C145.058 102.259 150.399 96.918 150.399 90.353C150.399 83.789 145.059 78.448 138.493 78.448Z" fill="#FFD848"/>
<path id="Vector_2" d="M207.755 125.539C201.191 125.539 195.85 130.88 195.85 137.445C195.85 144.009 201.191 149.35 207.755 149.35C214.32 149.35 219.661 144.009 219.661 137.445C219.661 130.88 214.32 125.539 207.755 125.539Z" fill="#FFD848"/>
<path id="bascket" d="M291.584 43.193C287.976 38.702 282.526 36.089 276.767 36.089H103.172L98.079 14.26C96.2 6.21001 89.021 0.514008 80.755 0.514008H17.788C7.964 0.514008 0 8.47701 0 18.302C0 28.127 7.964 36.09 17.788 36.09H45.854L76.406 174.59C79.341 187.896 91.133 197.369 104.759 197.369H241.52C255.145 197.369 266.938 187.895 269.873 174.59L295.329 59.192C296.568 53.567 295.192 47.683 291.584 43.193ZM111.588 90.354C111.588 75.518 123.657 63.449 138.493 63.449C153.329 63.449 165.399 75.518 165.399 90.354C165.399 105.19 153.329 117.26 138.493 117.26C123.657 117.26 111.588 105.189 111.588 90.354ZM147.121 172.227C145.977 172.227 144.817 171.964 143.727 171.411C140.035 169.534 138.564 165.018 140.441 161.326L192.123 59.676C194 55.985 198.516 54.515 202.208 56.39C205.9 58.267 207.371 62.783 205.494 66.475L153.812 168.125C152.489 170.727 149.854 172.227 147.121 172.227ZM207.755 164.35C192.919 164.35 180.85 152.281 180.85 137.445C180.85 122.609 192.919 110.539 207.755 110.539C222.591 110.539 234.661 122.609 234.661 137.445C234.661 152.281 222.591 164.35 207.755 164.35Z" fill="#FFD848"/>
</g>
</svg>
