<svg height="512pt" viewBox="-66 0 512 512.00102" width="512pt" xmlns="http://www.w3.org/2000/svg"><path d="m117.5 402.5h30l15-110h-75zm0 0" fill="#696969"/><path d="m117.5 402.5h-30l-15-110h45zm0 0" fill="#808080"/><path d="m253 322.5 45 80h30v-60zm0 0" fill="#084f6d"/><path d="m208 342.5v60h90v-80zm0 0" fill="#116f97"/><path d="m298 312.5-35 15 35 15h30v-30zm0 0" fill="#002f42"/><path d="m208 312.5h90v30h-90zm0 0" fill="#084f6d"/><path d="m102.5 247.5 15 90c24.851562 0 45-20.148438 45-45zm0 0" fill="#353535"/><path d="m72.5 292.5c0 24.851562 20.148438 45 45 45v-90zm0 0" fill="#4f4f4f"/><path d="m147.5 172.5-30-.011719-30 60.003907 30 59.996093 30 .011719 15-60zm0 0" fill="#dbf4ff"/><path d="m117.5 172.488281-30 .011719-15 60 15 60 30-.011719zm0 0" fill="#fff"/><path d="m77.507812 172.5c-11.046874 0-20 8.953125-20 20l-.007812 210h30v-230zm0 0" fill="#b3b3b3"/><path d="m157.5 172.5h-10v230h30v-210c0-11.046875-8.953125-20-20-20zm0 0" fill="#b3b3b3"/><g fill="#a8e5ff"><path d="m328 285c-4.140625 0-7.5-3.359375-7.5-7.5v-10c0-4.140625 3.359375-7.5 7.5-7.5s7.5 3.359375 7.5 7.5v10c0 4.140625-3.359375 7.5-7.5 7.5zm0 0"/><path d="m352.75 295.25c-1.921875 0-3.839844-.730469-5.304688-2.195312-2.929687-2.929688-2.929687-7.679688 0-10.605469l7.070313-7.074219c2.929687-2.925781 7.679687-2.925781 10.609375 0 2.929688 2.929688 2.929688 7.679688 0 10.609375l-7.070312 7.070313c-1.46875 1.464843-3.386719 2.195312-5.304688 2.195312zm0 0"/><path d="m373 320h-10c-4.140625 0-7.5-3.359375-7.5-7.5 0-4.144531 3.359375-7.5 7.5-7.5h10c4.140625 0 7.5 3.355469 7.5 7.5 0 4.140625-3.359375 7.5-7.5 7.5zm0 0"/></g><path d="m117.5 37.5v101l45-31v-40zm0 0" fill="#a45e43"/><path d="m72.5 67.5v40l60 46v-116zm0 0" fill="#c27749"/><path d="m162.5 67.5h-90l45-45zm0 0" fill="#7dd9ff"/><path d="m162.5 52.5v15c-24.851562 0-45-20.148438-45-45h-15l15-15c24.847656 0 45 20.148438 45 45zm0 0" fill="#a8e5ff"/><path d="m117.5 7.5v15c0 24.851562-20.152344 45-45 45v-15c0-24.851562 20.148438-45 45-45zm0 0" fill="#dbf4ff"/><path d="m136.207031 107.5c-1.050781-1.574219-2.300781-3.003906-3.707031-4.261719l-15 69.261719c24.851562 0 45-20.148438 45-45v-20zm0 0" fill="#40211d"/><path d="m132.5 127.5v-24.261719c-3.980469-3.566406-9.234375-5.738281-15-5.738281-7.800781 0-14.671875 3.96875-18.707031 10h-26.292969v20c0 24.851562 20.148438 45 45 45 8.285156 0 15-20.148438 15-45zm0 0" fill="#60312c"/><path d="m328 305h-22.5v-22.5c0-4.140625-3.359375-7.5-7.5-7.5h-23.285156c-3.679688-48.121094-42.445313-86.578125-90.699219-89.777344-3.199219-11.644531-13.871094-20.222656-26.515625-20.222656h-3.308594c9.746094-9.539062 15.808594-22.820312 15.808594-37.5v-75c0-28.949219-23.550781-52.5-52.5-52.5s-52.5 23.550781-52.5 52.5v75c0 14.679688 6.0625 27.960938 15.808594 37.5h-3.308594c-12.703125 0-23.417969 8.660156-26.5625 20.382812-28.625 3.269532-50.9375 27.628907-50.9375 57.117188 0 29.160156 21.828125 53.304688 50 56.996094v103.003906c0 4.140625 3.359375 7.5 7.5 7.5h22.5v79.09375l-24.871094 8.289062c-3.929687 1.3125-6.054687 5.558594-4.746094 9.488282 1.050782 3.144531 3.976563 5.128906 7.117188 5.128906.785156 0 1.585938-.125 2.371094-.386719l30-10c3.0625-1.019531 5.128906-3.886719 5.128906-7.113281v-84.5h45v84.5c0 3.226562 2.066406 6.09375 5.128906 7.113281l30 10c.785156.261719 1.585938.386719 2.371094.386719 3.140625 0 6.066406-1.988281 7.113281-5.128906 1.3125-3.929688-.8125-8.175782-4.742187-9.488282l-24.871094-8.289062v-79.09375h22.5c4.140625 0 7.5-3.359375 7.5-7.5v-202.144531c39.511719 3.582031 71.0625 35.128906 74.640625 74.644531h-21.644531c-4.140625 0-7.496094 3.359375-7.496094 7.5v22.5h-22.5c-4.144531 0-7.5 3.355469-7.5 7.5v90c0 4.140625 3.355469 7.5 7.5 7.5h119.996094c4.144531 0 7.5-3.359375 7.5-7.5v-90c.003906-4.144531-3.355469-7.5-7.496094-7.5zm-233-5h45v22.496094c-6.464844 4.855468-14.339844 7.503906-22.5 7.503906s-16.03125-2.648438-22.5-7.503906zm45-15h-45v-105h15v82.488281c0 4.140625 3.359375 7.5 7.5 7.5s7.5-3.359375 7.5-7.5v-82.488281h15zm-60-210h75v25h-15.140625c-5.648437-6.324219-13.742187-10-22.359375-10-8.613281 0-16.707031 3.675781-22.359375 10h-15.140625zm29.191406-15c3.191406-3.125 5.992188-6.644531 8.308594-10.492188 2.316406 3.847657 5.117188 7.367188 8.308594 10.492188zm45.808594-7.5v6.746094c-17.097656-3.484375-30-18.636719-30-36.746094v-6.746094c17.097656 3.484375 30 18.636719 30 36.746094zm-45-36.746094v6.746094c0 18.109375-12.902344 33.261719-30 36.746094v-6.746094c0-18.109375 12.90625-33.261719 30-36.746094zm-30 111.746094v-12.5h18.792969c2.5 0 4.839843-1.25 6.230469-3.328125 2.796874-4.179687 7.460937-6.671875 12.476562-6.671875s9.679688 2.492188 12.476562 6.671875c1.390626 2.078125 3.730469 3.328125 6.230469 3.328125h18.792969v12.5c0 20.675781-16.820312 37.5-37.5 37.5-20.675781 0-37.5-16.824219-37.5-37.5zm-65 115c0-20.875 15.132812-38.269531 35-41.824219v83.648438c-19.867188-3.554688-35-20.949219-35-41.824219zm50 152.5v-202.5c0-6.894531 5.605469-12.5 12.5-12.5h2.5v145.726562 69.273438zm30 0v-55.070312c6.972656 3.308593 14.640625 5.070312 22.5 5.070312s15.527344-1.761719 22.5-5.070312v55.070312zm75 0h-15v-215h2.5c6.894531 0 12.5 5.605469 12.5 12.5zm75.5-105h45v15h-45zm75 30v15h-105v-15zm-105 75v-45h105v45zm0 0"/></svg>