<?xml version="1.0" encoding="iso-8859-1"?>
<!-- Generator: Adobe Illustrator 19.0.0, SVG Export Plug-In . SVG Version: 6.00 Build 0)  -->
<svg version="1.1" id="Capa_1" xmlns="http://www.w3.org/2000/svg" xmlns:xlink="http://www.w3.org/1999/xlink" x="0px" y="0px"
	 viewBox="0 0 449.5 449.5" style="enable-background:new 0 0 449.5 449.5;" xml:space="preserve">
<g>
	<path style="fill:#D4E1F4;" d="M178,270.66h20v90.69h-20V270.66z"/>
	<path style="fill:#D4E1F4;" d="M318,401.35h-20c-22.081-0.025-39.975-17.919-40-40v-90.69h20v90.69c0.013,11.04,8.96,19.987,20,20
		h20V401.35z"/>
	<path style="fill:#D4E1F4;" d="M78,401.35H58v-20h20c11.04-0.013,19.987-8.96,20-20v-90.69h20v90.69
		C117.975,383.431,100.081,401.325,78,401.35z"/>
</g>
<g>
	<circle style="fill:#00EFD1;" cx="346" cy="391.35" r="30"/>
	<circle style="fill:#00EFD1;" cx="188" cy="386.35" r="30"/>
	<circle style="fill:#00EFD1;" cx="30" cy="391.35" r="30"/>
</g>
<path style="fill:#00ACEA;" d="M231.48,28.15c-41.19,0-76.29,24.42-92.56,59.51c-5.361-1.038-10.81-1.55-16.27-1.53
	c-36.11,0-66.63,24.41-76.8,57.47c-7.365,3.377-14.077,8.025-19.83,13.73c-26.419,26.369-26.459,69.161-0.09,95.58
	c12.692,12.716,29.924,19.855,47.89,19.84h218.75l39.64-128.4c0.579-4.81,0.909-9.648,0.99-14.492
	c0.008-56.163-45.514-101.7-101.678-101.708C231.508,28.15,231.494,28.15,231.48,28.15z"/>
<path style="fill:#00EFD1;" d="M408.59,144.37l40.91,65.74h-67.04l0.22-0.55l-13.64-64.82v-0.37H408.59z"/>
<g>
	<path style="fill:#00CEB4;" d="M449.5,210.11l-117.01,124.1l-0.09-0.23l0.09-0.04l49.97-123.83L449.5,210.11z"/>
	<path style="fill:#00CEB4;" d="M332.21,144.37h36.83v0.37l13.64,64.82l-0.22,0.55h-99.61l13.09-65.74H332.21z"/>
</g>
<path style="fill:#00EFD1;" d="M382.46,210.11l-49.97,123.83l-0.09,0.04l-49.55-123.87L382.46,210.11z"/>
<path style="fill:#00CEB4;" d="M274.57,272.78l-59.09-62.67h67.37l49.55,123.87l0.09,0.23L274.57,272.78z"/>
<path style="fill:#00EFD1;" d="M295.94,144.37l-13.09,65.74h-67.37l40.91-65.74H295.94z"/>
<g>
</g>
<g>
</g>
<g>
</g>
<g>
</g>
<g>
</g>
<g>
</g>
<g>
</g>
<g>
</g>
<g>
</g>
<g>
</g>
<g>
</g>
<g>
</g>
<g>
</g>
<g>
</g>
<g>
</g>
</svg>
