<svg height="475pt" viewBox="-12 0 475 475.90913" width="475pt" xmlns="http://www.w3.org/2000/svg"><path d="m452.292969 248.757812v227.152344h-150.476563v-137.199218l53.628906-32.050782zm0 0" fill="#00acea"/><path d="m398.375 1.160156c11.003906 3.25 18.964844 12.8125 20.164062 24.226563 1.199219 11.410156-4.601562 22.421875-14.691406 27.886719-10.089844 5.46875-22.476562 4.3125-31.382812-2.925782-2.621094 8.167969-11.339844 12.691406-19.527344 10.132813-8.1875-2.5625-12.777344-11.246094-10.28125-19.449219 2.496094-8.207031 11.144531-12.863281 19.367188-10.433594.023437.015625.046874.019532.070312.019532-.285156-3.464844.078125-6.953126 1.070312-10.289063 4.429688-15.015625 20.195313-23.601563 35.210938-19.167969zm0 0" fill="#00acea"/><path d="m344.523438 211.667969 10.921874 94.992187-53.628906 32.050782v-89.953126l-34.203125 20.441407 6.609375-57.53125h.023438c0 6.722656 70.257812 6.722656 70.257812 0zm0 0" fill="#fedb41"/><path d="m333.375 114.667969 11.148438 97h-.019532c0 6.722656-70.257812 6.722656-70.257812 0h-.023438l11.152344-97zm0 0" fill="#00efd1"/><path d="m327.375 79.167969c0 8.5625-6.941406 15.5-15.5 15.5-8.5625 0-15.5-6.9375-15.5-15.5 0-8.558594 6.9375-15.5 15.5-15.5 8.558594 0 15.5 6.941406 15.5 15.5zm0 0" fill="#00acea"/><path d="m301.816406 248.757812v89.953126l-.410156.25v136.949218h-150.0625v-137.199218l116.269531-69.511719zm0 0" fill="#00efd1"/><path d="m151.34375 248.757812v89.953126l-.410156.25v136.949218h-150.480469v-136.949218zm0 0" fill="#00acea"/><path d="m388.335938 420.140625h39.359374v25.429687h-39.359374zm0 0" fill="#00efd1"/><path d="m388.335938 370.117188h39.359374v25.421874h-39.359374zm0 0" fill="#00efd1"/><path d="m325.183594 420.140625h39.371094v25.429687h-39.371094zm0 0" fill="#00efd1"/><path d="m325.183594 370.117188h39.371094v25.421874h-39.371094zm0 0" fill="#00efd1"/><g fill="#00acea"><path d="m237.855469 420.140625h39.359375v25.429687h-39.359375zm0 0"/><path d="m237.855469 370.117188h39.359375v25.421874h-39.359375zm0 0"/><path d="m174.714844 420.140625h39.359375v25.429687h-39.359375zm0 0"/><path d="m174.714844 370.117188h39.359375v25.421874h-39.359375zm0 0"/></g><path d="m87.375 420.140625h39.371094v25.429687h-39.371094zm0 0" fill="#00efd1"/><path d="m87.375 370.117188h39.371094v25.421874h-39.371094zm0 0" fill="#00efd1"/><path d="m24.234375 420.140625h39.359375v25.429687h-39.359375zm0 0" fill="#00efd1"/><path d="m24.234375 370.117188h39.359375v25.421874h-39.359375zm0 0" fill="#00efd1"/></svg>