<?xml version="1.0" encoding="iso-8859-1"?>
<!-- Generator: Adobe Illustrator 19.0.0, SVG Export Plug-In . SVG Version: 6.00 Build 0)  -->
<svg version="1.1" id="Capa_1" xmlns="http://www.w3.org/2000/svg" xmlns:xlink="http://www.w3.org/1999/xlink" x="0px" y="0px"
	 viewBox="0 0 512 512" style="enable-background:new 0 0 512 512;" xml:space="preserve">
<path style="fill:#EB7361;" d="M416,144c0,17.672,14.328,32,32,32s32-14.328,32-32"/>
<g>
	<rect id="SVGCleanerId_0" x="64" y="472" style="fill:#BD8931;" width="384" height="32"/>
</g>
<g>
	<rect id="SVGCleanerId_0_1_" x="64" y="472" style="fill:#BD8931;" width="384" height="32"/>
</g>
<g>
	<rect id="SVGCleanerId_0_2_" x="64" y="472" style="fill:#BD8931;" width="384" height="32"/>
</g>
<g>
	<ellipse style="fill:#FCB641;" cx="432" cy="404" rx="16" ry="36"/>
	<ellipse style="fill:#FCB641;" cx="80" cy="404" rx="16" ry="36"/>
	<path style="fill:#FCB641;" d="M256,168c0,0-183.08,128-184,128v24h24h32v152h256V320h32h24v-24L256,168z"/>
</g>
<g>
	<circle style="fill:#FEF0D9;" cx="256" cy="256" r="32"/>
	<rect x="208" y="328" style="fill:#FEF0D9;" width="40" height="144"/>
	<rect x="168" y="328" style="fill:#FEF0D9;" width="40" height="144"/>
	<rect x="296" y="328" style="fill:#FEF0D9;" width="48" height="80"/>
	<ellipse style="fill:#FEF0D9;" cx="432" cy="404" rx="16" ry="36"/>
	<ellipse style="fill:#FEF0D9;" cx="80" cy="404" rx="16" ry="36"/>
</g>
<path d="M432,448c-15.76,0-24-22.136-24-44s8.24-44,24-44s24,22.136,24,44S447.76,448,432,448z M431.832,375.976
	C429.912,376.712,424,386.432,424,404s5.912,27.288,8.168,28.024C434.088,431.288,440,421.568,440,404
	S434.088,376.712,431.832,375.976z"/>
<path d="M80,448c-15.76,0-24-22.136-24-44s8.24-44,24-44s24,22.136,24,44S95.76,448,80,448z M79.832,375.976
	C77.92,376.712,72,386.432,72,404s5.92,27.288,8.168,28.024C82.08,431.288,88,421.568,88,404S82.08,376.712,79.832,375.976z"/>
<path d="M384,480H128c-4.416,0-8-3.576-8-8V304c0-4.424,3.584-8,8-8s8,3.576,8,8v160h240V304c0-4.424,3.576-8,8-8s8,3.576,8,8v168
	C392,476.424,388.424,480,384,480z"/>
<path id="SVGCleanerId_1" d="M440,328h-24c-4.424,0-8-3.576-8-8s3.576-8,8-8h16v-11.824L256.008,177.752
	C132.416,264.168,93.408,291.432,80,300.032V312h16c4.416,0,8,3.576,8,8s-3.584,8-8,8H72c-4.416,0-8-3.576-8-8v-24
	c0-3.048,1.696-5.688,4.2-7.04c6.864-4.376,112.928-78.376,183.216-127.512c2.752-1.912,6.4-1.928,9.16-0.016l184,128
	C446.72,290.928,448,293.384,448,296v24C448,324.424,444.424,328,440,328z"/>
<path id="SVGCleanerId_2" d="M256,296c-22.056,0-40-17.944-40-40s17.944-40,40-40s40,17.944,40,40S278.056,296,256,296z M256,232
	c-13.232,0-24,10.768-24,24s10.768,24,24,24s24-10.768,24-24S269.232,232,256,232z"/>
<path d="M248,480h-40c-4.416,0-8-3.576-8-8V328c0-4.424,3.584-8,8-8h40c4.416,0,8,3.576,8,8v144C256,476.424,252.416,480,248,480z
	 M216,464h24V336h-24V464z"/>
<path d="M208,480h-40c-4.416,0-8-3.576-8-8V328c0-4.424,3.584-8,8-8h40c4.416,0,8,3.576,8,8v144C216,476.424,212.416,480,208,480z
	 M176,464h24V336h-24V464z"/>
<path d="M344,416h-48c-4.424,0-8-3.576-8-8v-80c0-4.424,3.576-8,8-8h48c4.424,0,8,3.576,8,8v80C352,412.424,348.424,416,344,416z
	 M304,400h32v-64h-32V400z"/>
<path d="M344,448h-48c-4.424,0-8-3.576-8-8v-32c0-4.424,3.576-8,8-8h48c4.424,0,8,3.576,8,8v32C352,444.424,348.424,448,344,448z
	 M304,432h32v-16h-32V432z"/>
<g>
	<path id="SVGCleanerId_1_1_" d="M440,328h-24c-4.424,0-8-3.576-8-8s3.576-8,8-8h16v-11.824L256.008,177.752
		C132.416,264.168,93.408,291.432,80,300.032V312h16c4.416,0,8,3.576,8,8s-3.584,8-8,8H72c-4.416,0-8-3.576-8-8v-24
		c0-3.048,1.696-5.688,4.2-7.04c6.864-4.376,112.928-78.376,183.216-127.512c2.752-1.912,6.4-1.928,9.16-0.016l184,128
		C446.72,290.928,448,293.384,448,296v24C448,324.424,444.424,328,440,328z"/>
</g>
<g>
	<path id="SVGCleanerId_2_1_" d="M256,296c-22.056,0-40-17.944-40-40s17.944-40,40-40s40,17.944,40,40S278.056,296,256,296z
		 M256,232c-13.232,0-24,10.768-24,24s10.768,24,24,24s24-10.768,24-24S269.232,232,256,232z"/>
</g>
<rect x="296" y="408" style="fill:#BD8931;" width="48" height="32"/>
<path id="SVGCleanerId_3" d="M280,72c-4.424,0-8-3.576-8-8c0-8.824-7.176-16-16-16s-16,7.176-16,16c0,4.424-3.584,8-8,8
	s-8-3.576-8-8c0-17.648,14.352-32,32-32s32,14.352,32,32C288,68.424,284.424,72,280,72z"/>
<path style="fill:#FCB641;" d="M280,64c0-13.256-10.744-24-24-24s-24,10.744-24,24c0,7.08,3.12,13.376,8,17.768V104h32V81.768
	C276.88,77.376,280,71.08,280,64z"/>
<path style="fill:#EB7361;" d="M280,64c0-13.256-10.744-24-24-24s-24,10.744-24,24c0,7.08,3.12,13.376,8,17.768V104h32V81.768
	C276.88,77.376,280,71.08,280,64z"/>
<path d="M272,112h-32c-4.416,0-8-3.576-8-8V85.04c-5.12-5.832-8-13.312-8-21.04c0-17.648,14.352-32,32-32s32,14.352,32,32
	c0,7.728-2.872,15.208-8,21.04V104C280,108.424,276.424,112,272,112z M248,96h16V81.776c0-2.264,0.96-4.424,2.64-5.936
	C270.096,72.72,272,68.512,272,64c0-8.824-7.176-16-16-16s-16,7.176-16,16c0,4.512,1.904,8.72,5.36,11.832
	c1.68,1.52,2.64,3.672,2.64,5.944V96z"/>
<g>
	<path id="SVGCleanerId_3_1_" d="M280,72c-4.424,0-8-3.576-8-8c0-8.824-7.176-16-16-16s-16,7.176-16,16c0,4.424-3.584,8-8,8
		s-8-3.576-8-8c0-17.648,14.352-32,32-32s32,14.352,32,32C288,68.424,284.424,72,280,72z"/>
</g>
<path d="M256,24c-4.416,0-8-3.576-8-8V8c0-4.424,3.584-8,8-8c4.416,0,8,3.576,8,8v8C264,20.424,260.416,24,256,24z"/>
<path d="M312,72h-8c-4.424,0-8-3.576-8-8s3.576-8,8-8h8c4.424,0,8,3.576,8,8S316.424,72,312,72z"/>
<path d="M208,72h-8c-4.416,0-8-3.576-8-8s3.584-8,8-8h8c4.416,0,8,3.576,8,8S212.416,72,208,72z"/>
<path d="M289.936,38.064c-2.048,0-4.096-0.784-5.656-2.344c-3.128-3.128-3.128-8.184,0-11.312l5.664-5.664
	c3.128-3.128,8.184-3.128,11.312,0s3.128,8.184,0,11.312l-5.664,5.664C294.032,37.28,291.984,38.064,289.936,38.064z"/>
<path d="M222.056,38.064c-2.048,0-4.096-0.784-5.664-2.344l-5.656-5.664c-3.12-3.136-3.12-8.192,0.008-11.32
	c3.128-3.112,8.192-3.12,11.312,0.008l5.656,5.664c3.12,3.136,3.12,8.192-0.008,11.32C226.152,37.28,224.104,38.064,222.056,38.064z
	"/>
<path d="M488,128h-80c-4.424,0-8-3.576-8-8s3.576-8,8-8h80c4.424,0,8,3.576,8,8S492.424,128,488,128z"/>
<path d="M424,200c-4.424,0-8-3.576-8-8v-24c0-4.424,3.576-8,8-8s8,3.576,8,8v24C432,196.424,428.424,200,424,200z"/>
<path style="fill:#EB7361;" d="M79.984,138.816C84.976,144.464,88,151.88,88,160c0,17.672-14.328,32-32,32s-32-14.328-32-32
	c0-8.112,3.024-15.528,8-21.168"/>
<path d="M56,200c-22.056,0-40-17.944-40-40c0-9.76,3.552-19.16,10-26.464c2.928-3.312,7.976-3.632,11.296-0.704
	c3.312,2.928,3.624,7.984,0.696,11.296C34.128,148.504,32,154.152,32,160c0,13.232,10.768,24,24,24s24-10.768,24-24
	c0-5.856-2.136-11.504-6.008-15.88c-2.928-3.312-2.616-8.368,0.696-11.288s8.368-2.608,11.296,0.696
	C92.44,140.832,96,150.232,96,160C96,182.056,78.056,200,56,200z"/>
<path d="M56,160c-4.416,0-8-3.576-8-8v-32c0-4.424,3.584-8,8-8s8,3.576,8,8v32C64,156.424,60.416,160,56,160z"/>
<path d="M296,448h48c4.424,0,8-3.576,8-8v-32v-80c0-4.424-3.576-8-8-8h-48c-4.424,0-8,3.576-8,8v80v32
	C288,444.424,291.576,448,296,448z M336,432h-32v-16h32V432z M304,336h32v64h-32V336z"/>
<path d="M504,496h-48v-24c0-4.424-3.576-8-8-8h-8v-18.152c10.536-6.064,16-24.04,16-41.848c0-21.864-8.24-44-24-44s-24,22.136-24,44
	c0,17.8,5.464,35.776,16,41.848V464h-32V304c0-4.424-3.576-8-8-8s-8,3.576-8,8v160H256V328c0-4.424-3.584-8-8-8h-40h-40
	c-4.416,0-8,3.576-8,8v136h-24V304c0-4.424-3.584-8-8-8s-8,3.576-8,8v160H88v-18.152c10.536-6.064,16-24.04,16-41.848
	c0-21.864-8.24-44-24-44s-24,22.136-24,44c0,17.8,5.464,35.776,16,41.848V464h-8c-4.416,0-8,3.576-8,8v24H8c-4.416,0-8,3.576-8,8
	s3.584,8,8,8h56h384h56c4.424,0,8-3.576,8-8S508.424,496,504,496z M431.832,375.976C434.088,376.712,440,386.432,440,404
	s-5.912,27.288-7.832,28.024C429.912,431.288,424,421.568,424,404S429.912,376.712,431.832,375.976z M240,464h-24V336h24V464z
	 M176,336h24v128h-24V336z M79.832,375.976C82.08,376.712,88,386.432,88,404s-5.92,27.288-7.832,28.024
	C77.92,431.288,72,421.568,72,404S77.92,376.712,79.832,375.976z M440,496H72v-16h56h40h40h40h136h56V496z"/>
<path d="M488,144c0-4.424-3.576-8-8-8s-8,3.576-8,8c0,13.232-10.768,24-24,24s-24-10.768-24-24c0-4.424-3.576-8-8-8s-8,3.576-8,8
	c0,22.056,17.944,40,40,40c5.696,0,11.088-1.232,16-3.392V192c0,4.424,3.576,8,8,8s8-3.576,8-8v-24c0-0.072-0.04-0.128-0.04-0.2
	C484.944,161.128,488,152.944,488,144z"/>
<path d="M442.32,149.68c0.8,0.72,1.6,1.28,2.64,1.68c0.96,0.4,2,0.64,3.04,0.64s2.08-0.24,3.04-0.64s1.832-0.96,2.64-1.68
	c0.72-0.808,1.28-1.68,1.68-2.64s0.64-2,0.64-3.04c0-2.08-0.88-4.168-2.32-5.68c-2.96-2.96-8.4-2.96-11.36,0
	c-0.32,0.4-0.72,0.8-0.96,1.192c-0.32,0.488-0.56,0.96-0.72,1.448c-0.24,0.48-0.4,0.96-0.488,1.44C440,142.96,440,143.44,440,144
	c0,1.04,0.16,2.08,0.552,3.04C441.04,148,441.6,148.872,442.32,149.68z"/>
<g>
</g>
<g>
</g>
<g>
</g>
<g>
</g>
<g>
</g>
<g>
</g>
<g>
</g>
<g>
</g>
<g>
</g>
<g>
</g>
<g>
</g>
<g>
</g>
<g>
</g>
<g>
</g>
<g>
</g>
</svg>
